<svg width="370" height="100" viewBox="0 0 370 100" fill="none" xmlns="http://www.w3.org/2000/svg">
<path d="M64.7322 36.7308C58.4557 44.7148 56.2058 45.4721 46.3796 42.9055C54.3642 49.1815 55.1204 51.4319 52.555 61.2575C58.8309 53.2741 61.0814 52.5162 70.9064 55.0828C62.923 48.8068 62.1662 46.5564 64.7322 36.7308Z" fill="#FFB531"/>
<path d="M7.19152 8.33496C5.78884 11.4542 5.25495 14.8201 5.13043 18.1799C5.0332 21.5458 5.48466 24.9363 6.37846 28.2033C7.26203 31.4778 8.7136 34.5884 10.3596 37.5018C11.1755 38.9636 12.1535 40.3419 13.0587 41.7138C14.0639 43.0415 15.0623 44.3521 16.1585 45.5682C20.5588 50.4336 25.7732 54.2396 31.364 56.6959C36.9122 59.1987 42.8095 60.5235 48.6374 60.4695C48.9245 60.4667 49.1593 60.237 49.1622 59.9555C49.1633 59.8253 49.1144 59.7065 49.0331 59.6172L49.0263 59.6092C47.1318 57.5396 45.4346 55.4763 43.9028 53.3924C42.3637 51.3251 41.0099 49.2259 39.8489 47.1284C37.4791 42.9647 36.0002 38.7351 35.1644 34.7528C35.0364 34.2655 35.0109 33.7333 34.9216 33.2426C34.8448 32.7451 34.7499 32.2647 34.6873 31.7751C34.6282 30.7653 34.5225 29.8067 34.4713 28.8492C34.3849 26.9223 34.552 25.0329 34.5975 23.2294C34.6544 21.4191 34.6947 19.6542 34.6578 17.8598C34.5691 16.0596 34.5088 14.2612 33.9823 12.2763L33.3688 9.96279C31.447 2.71855 23.8611 -1.51621 16.4246 0.503944C12.1734 1.65929 8.86484 4.66934 7.19152 8.33496Z" fill="#245AE0"/>
<path d="M4.36518 86.7367C6.51611 88.3872 9.01557 89.4124 11.5855 90.1203C14.1652 90.8088 16.8631 91.0772 19.5468 90.9834C22.2339 90.8981 24.8988 90.3449 27.446 89.6057C28.7225 89.2424 29.9637 88.7392 31.1872 88.2906C32.3949 87.7567 33.5878 87.2251 34.7261 86.6008C39.2815 84.0922 43.1677 80.7626 46.0811 76.8963C49.0229 73.0715 51.1193 68.7628 52.1393 64.2563C52.1899 64.0345 52.0552 63.8111 51.8385 63.7576C51.7385 63.7326 51.6378 63.7491 51.5542 63.7957L51.5469 63.7997C49.6046 64.8845 47.7038 65.8181 45.8173 66.6204C43.9421 67.4312 42.0755 68.0936 40.2458 68.607C36.6018 69.6771 33.0692 70.0478 29.8443 69.967C29.4451 69.9773 29.0295 69.8994 28.6349 69.8789C28.2375 69.8476 27.8491 69.8329 27.4602 69.7925C26.6705 69.6543 25.9114 69.5611 25.1632 69.4263C23.6604 69.142 22.2339 68.669 20.8505 68.3051C19.4643 67.9315 18.11 67.579 16.7187 67.2805C15.3137 67.0207 13.915 66.7398 12.2877 66.7847L10.391 66.837C4.4516 67.0002 -0.197647 72.0816 0.00647204 78.187C0.121893 81.6769 1.84184 84.7779 4.36518 86.7367Z" fill="#01C897"/>
<path d="M62.546 98.4743C63.9816 97.3741 65.075 95.9407 65.9762 94.4073C66.866 92.8642 67.5062 91.1726 67.9099 89.4271C68.3199 87.681 68.425 85.8684 68.3898 84.099C68.3767 83.2137 68.267 82.3267 68.1902 81.4608C68.0555 80.5903 67.919 79.7294 67.7137 78.888C66.8859 75.5186 65.4127 72.438 63.4261 69.8914C61.4708 67.3339 59.0572 65.237 56.3303 63.8002C56.1961 63.7291 56.0289 63.7774 55.9573 63.9076C55.9237 63.9679 55.9169 64.0356 55.9323 64.0976L55.9334 64.1027C56.2962 65.5417 56.5685 66.9285 56.759 68.2829C56.9568 69.6315 57.0603 70.9489 57.0751 72.2168C57.1337 74.7498 56.7612 77.0907 56.1512 79.1546C56.0886 79.4133 55.967 79.6681 55.8851 79.9188C55.7958 80.1695 55.7196 80.4174 55.6258 80.6608C55.4001 81.1458 55.209 81.6188 54.9924 82.0771C54.5489 82.9959 53.9974 83.834 53.5238 84.6619C53.0428 85.4903 52.5816 86.3022 52.1484 87.1471C51.7379 88.0074 51.3149 88.8602 51.0618 89.9166L50.7673 91.1476C49.8445 95.0026 52.3138 98.878 56.2836 99.8036C58.5511 100.332 60.847 99.761 62.546 98.4743Z" fill="#D82148"/>
<path d="M110.445 82.63C106.425 82.63 103.095 81.91 100.455 80.47C97.8149 78.97 95.8649 77.05 94.6049 74.71C93.3449 72.31 92.7149 69.73 92.7149 66.97C92.7149 64.51 93.1949 62.08 94.1549 59.68C95.1149 57.28 96.5249 55.09 98.3849 53.11C100.305 51.13 102.615 49.57 105.315 48.43C102.855 46.87 100.995 45.01 99.7349 42.85C98.5349 40.63 97.9349 38.32 97.9349 35.92C97.9349 32.8 98.9549 29.77 100.995 26.83C103.035 23.89 106.005 21.46 109.905 19.54C113.805 17.62 118.485 16.66 123.945 16.66C127.725 16.66 130.725 17.14 132.945 18.1C135.225 19 136.875 20.2 137.895 21.7C138.915 23.14 139.425 24.7 139.425 26.38C139.425 28.3 138.825 30.22 137.625 32.14C136.425 34 134.685 35.53 132.405 36.73C130.185 37.93 127.455 38.53 124.215 38.53C125.175 35.71 125.655 33.37 125.655 31.51C125.655 29.65 125.265 28.3 124.485 27.46C123.705 26.62 122.745 26.2 121.605 26.2C120.405 26.2 119.115 26.65 117.735 27.55C116.415 28.45 115.305 29.71 114.405 31.33C113.505 32.95 113.055 34.84 113.055 37C113.055 38.14 113.235 39.43 113.595 40.87C113.955 42.25 114.525 43.63 115.305 45.01C116.625 44.17 117.825 43.57 118.905 43.21C120.045 42.79 121.065 42.58 121.965 42.58C123.825 42.58 125.175 43.24 126.015 44.56C126.855 45.82 127.275 47.26 127.275 48.88C127.275 50.8 126.675 52.63 125.475 54.37C124.335 56.11 122.625 56.98 120.345 56.98C118.245 56.98 115.785 55.99 112.965 54.01C109.665 56.35 108.015 59.11 108.015 62.29C108.015 64.75 108.765 66.61 110.265 67.87C111.825 69.13 113.805 69.76 116.205 69.76C119.265 69.76 122.685 68.71 126.465 66.61C130.245 64.45 133.605 61.24 136.545 56.98L137.265 57.43C137.145 61.63 136.275 65.32 134.655 68.5C133.095 71.62 131.025 74.23 128.445 76.33C125.925 78.43 123.105 80.02 119.985 81.1C116.865 82.12 113.685 82.63 110.445 82.63ZM153.71 82.36C150.23 82.36 147.47 81.46 145.43 79.66C143.39 77.8 142.37 74.95 142.37 71.11C142.37 68.89 142.64 66.52 143.18 64C143.78 61.48 144.35 59.23 144.89 57.25C145.43 55.33 145.85 53.65 146.15 52.21C146.51 50.77 146.69 49.66 146.69 48.88C146.69 47.92 146.48 47.23 146.06 46.81C145.64 46.39 145.13 46.18 144.53 46.18C143.09 46.18 141.89 46.87 140.93 48.25L140.57 47.89C140.63 45.85 141.29 43.99 142.55 42.31C143.81 40.57 145.43 39.19 147.41 38.17C149.39 37.15 151.4 36.64 153.44 36.64C155.72 36.64 157.67 37.33 159.29 38.71C160.91 40.03 161.66 42.13 161.54 45.01C161.48 46.27 161.24 47.86 160.82 49.78C160.46 51.7 159.95 53.98 159.29 56.62C158.87 58.3 158.42 60.22 157.94 62.38C157.52 64.48 157.31 66.4 157.31 68.14C157.31 69.46 157.52 70.51 157.94 71.29C158.36 72.07 159.05 72.46 160.01 72.46C161.27 72.46 162.65 71.77 164.15 70.39C165.71 68.95 167.06 66.64 168.2 63.46C169.34 60.22 170 55.93 170.18 50.59C170.36 46.51 170.09 43.54 169.37 41.68V41.23C169.91 40.39 170.72 39.58 171.8 38.8C172.94 38.02 174.2 37.39 175.58 36.91C176.96 36.37 178.25 36.1 179.45 36.1C181.37 36.1 182.99 37.03 184.31 38.89C185.69 40.75 186.29 43.99 186.11 48.61C185.99 53.05 185.18 57.07 183.68 60.67C182.24 64.27 180.35 67.42 178.01 70.12C175.67 72.82 173.09 75.07 170.27 76.87C167.51 78.67 164.69 80.05 161.81 81.01C158.93 81.91 156.23 82.36 153.71 82.36ZM209.396 82.63C205.016 82.63 201.386 81.76 198.506 80.02C195.626 78.22 193.466 75.88 192.026 73C190.586 70.06 189.866 66.91 189.866 63.55C189.866 60.37 190.466 57.19 191.666 54.01C192.926 50.77 194.726 47.83 197.066 45.19C199.466 42.55 202.346 40.42 205.706 38.8C209.126 37.18 212.966 36.37 217.226 36.37C222.506 36.37 226.346 37.57 228.746 39.97C231.206 42.31 232.436 45.16 232.436 48.52C232.436 51.4 231.656 54.07 230.096 56.53C228.596 58.93 226.586 60.88 224.066 62.38C221.546 63.82 218.786 64.54 215.786 64.54C214.226 64.54 212.636 64.3 211.016 63.82C209.396 63.34 207.806 62.59 206.246 61.57C206.546 65.29 207.626 67.99 209.486 69.67C211.346 71.35 213.566 72.19 216.146 72.19C217.946 72.19 219.746 71.86 221.546 71.2C223.346 70.48 224.996 69.58 226.496 68.5C228.056 67.36 229.256 66.16 230.096 64.9L230.726 65.35C230.726 68.47 230.066 71.14 228.746 73.36C227.486 75.52 225.806 77.29 223.706 78.67C221.606 80.05 219.296 81.07 216.776 81.73C214.316 82.33 211.856 82.63 209.396 82.63ZM211.466 58.33C213.386 58.33 214.946 57.79 216.146 56.71C217.346 55.57 218.246 54.25 218.846 52.75C219.446 51.25 219.746 49.93 219.746 48.79C219.746 47.41 219.356 46.27 218.576 45.37C217.796 44.41 216.716 43.93 215.336 43.93C214.256 43.93 213.056 44.32 211.736 45.1C210.476 45.88 209.336 47.23 208.316 49.15C207.296 51.01 206.636 53.62 206.336 56.98C208.256 57.88 209.966 58.33 211.466 58.33ZM247.685 82.27C245.465 82.27 243.455 81.4 241.655 79.66C239.855 77.86 238.955 75.37 238.955 72.19C238.955 70.63 239.165 68.86 239.585 66.88C240.005 64.9 240.455 62.89 240.935 60.85C241.475 58.81 241.955 56.89 242.375 55.09C242.795 53.29 243.005 51.82 243.005 50.68C243.005 49.48 242.765 48.55 242.285 47.89C241.805 47.17 241.175 46.81 240.395 46.81C239.375 46.81 238.265 47.41 237.065 48.61L236.525 48.25C236.465 47.29 236.675 46.15 237.155 44.83C237.635 43.51 238.355 42.25 239.315 41.05C240.335 39.79 241.625 38.74 243.185 37.9C244.745 37.06 246.605 36.64 248.765 36.64C251.945 36.64 254.285 37.57 255.785 39.43C257.345 41.23 258.125 43.45 258.125 46.09C258.125 47.05 258.035 47.98 257.855 48.88C259.115 47.02 260.675 45.16 262.535 43.3C264.395 41.38 266.435 39.79 268.655 38.53C270.935 37.27 273.275 36.64 275.675 36.64C278.495 36.64 280.415 37.54 281.435 39.34C282.455 41.14 282.965 43.39 282.965 46.09C282.965 48.61 282.695 51.31 282.155 54.19C281.615 57.07 281.075 59.86 280.535 62.56C279.995 65.2 279.725 67.42 279.725 69.22C279.725 71.62 280.415 72.82 281.795 72.82C282.515 72.82 283.145 72.61 283.685 72.19C284.225 71.71 284.585 71.26 284.765 70.84L285.395 71.11C285.395 73.33 284.765 75.28 283.505 76.96C282.305 78.64 280.775 79.96 278.915 80.92C277.055 81.82 275.165 82.27 273.245 82.27C270.905 82.27 268.835 81.46 267.035 79.84C265.235 78.22 264.335 75.58 264.335 71.92C264.335 69.76 264.605 67.42 265.145 64.9C265.745 62.38 266.315 59.95 266.855 57.61C267.395 55.27 267.665 53.35 267.665 51.85C267.665 50.95 267.485 50.26 267.125 49.78C266.825 49.24 266.255 48.97 265.415 48.97C264.035 48.97 262.505 49.6 260.825 50.86C259.205 52.12 257.795 53.8 256.595 55.9C255.455 58 254.885 60.31 254.885 62.83C254.885 64.45 255.065 66.01 255.425 67.51C255.845 69.01 256.055 70.63 256.055 72.37C256.055 75.61 255.215 78.07 253.535 79.75C251.855 81.43 249.905 82.27 247.685 82.27ZM303.109 82.36C301.189 82.36 299.359 81.94 297.619 81.1C295.939 80.2 294.559 78.82 293.479 76.96C292.459 75.1 291.949 72.73 291.949 69.85C291.949 68.29 292.099 66.25 292.399 63.73C292.699 61.21 293.089 58.45 293.569 55.45C294.109 52.45 294.649 49.45 295.189 46.45C293.989 46.51 292.819 46.63 291.679 46.81C290.599 46.99 289.519 47.2 288.439 47.44L288.259 46.81C289.459 45.37 290.719 44.14 292.039 43.12C293.359 42.1 294.739 41.26 296.179 40.6C296.959 36.64 297.619 33.22 298.159 30.34C298.699 27.4 298.969 25.66 298.969 25.12C298.969 24.1 299.749 23.26 301.309 22.6C302.929 21.94 304.729 21.61 306.709 21.61C308.449 21.61 310.069 21.94 311.569 22.6C313.129 23.26 314.179 24.37 314.719 25.93C314.359 26.29 313.849 27.64 313.189 29.98C312.529 32.26 311.839 35.05 311.119 38.35C312.259 38.41 313.429 38.47 314.629 38.53C315.829 38.59 317.059 38.68 318.319 38.8C318.439 39.16 318.529 39.55 318.589 39.97C318.649 40.39 318.679 40.84 318.679 41.32C318.679 42.22 318.529 43.21 318.229 44.29C317.989 45.31 317.689 46.24 317.329 47.08C315.889 46.96 314.539 46.84 313.279 46.72C312.019 46.54 310.789 46.42 309.589 46.36C309.109 48.94 308.659 51.52 308.239 54.1C307.879 56.68 307.579 59.02 307.339 61.12C307.159 63.22 307.069 64.87 307.069 66.07C307.069 68.59 307.519 70.27 308.419 71.11C309.379 71.95 310.519 72.37 311.839 72.37C313.039 72.37 314.119 72.13 315.079 71.65C316.039 71.17 316.729 70.6 317.149 69.94L318.049 70.21C317.689 72.67 316.729 74.83 315.169 76.69C313.609 78.49 311.749 79.9 309.589 80.92C307.429 81.88 305.269 82.36 303.109 82.36ZM340.711 82.63C336.211 82.63 332.491 81.73 329.551 79.93C326.611 78.13 324.421 75.76 322.981 72.82C321.601 69.82 320.911 66.64 320.911 63.28C320.911 60.1 321.481 56.92 322.621 53.74C323.821 50.56 325.531 47.68 327.751 45.1C330.031 42.46 332.791 40.36 336.031 38.8C339.271 37.18 342.991 36.37 347.191 36.37C351.691 36.37 355.381 37.3 358.261 39.16C361.201 40.96 363.361 43.36 364.741 46.36C366.181 49.36 366.901 52.57 366.901 55.99C366.901 59.11 366.331 62.26 365.191 65.44C364.051 68.56 362.341 71.44 360.061 74.08C357.841 76.66 355.111 78.73 351.871 80.29C348.631 81.85 344.911 82.63 340.711 82.63ZM343.141 74.98C344.761 74.98 346.111 74.14 347.191 72.46C348.271 70.78 349.081 68.65 349.621 66.07C350.161 63.43 350.431 60.76 350.431 58.06C350.431 55.66 350.191 53.41 349.711 51.31C349.291 49.15 348.631 47.41 347.731 46.09C346.831 44.71 345.661 44.02 344.221 44.02C342.661 44.02 341.311 44.86 340.171 46.54C339.091 48.22 338.281 50.35 337.741 52.93C337.201 55.51 336.931 58.18 336.931 60.94C336.931 63.34 337.141 65.62 337.561 67.78C338.041 69.88 338.731 71.62 339.631 73C340.531 74.32 341.701 74.98 343.141 74.98Z" fill="#245AE0"/>
</svg>
